{
    "asset" : {
        "generator" : "Khronos glTF Blender I/O v1.7.17",
        "version" : "2.0"
    },
    "scene" : 0,
    "scenes" : [
        {
            "extras" : {
                "maps_models_importer_ref_matrix" : [
                    -12.954334259033203,
                    1.751201671140734e-05,
                    3.889969825744629,
                    -3.8898725509643555,
                    -0.00010873396968236193,
                    -1.7520296573638916,
                    -67.08585357666016,
                    47.002662658691406,
                    6.172453140607104e-06,
                    6.331859588623047,
                    -48.52370071411133,
                    42.96843338012695,
                    3.2674717339225895e-15,
                    0.0,
                    -0.0663781389594078,
                    0.06637928634881973
                ],
                "maps_models_importer_is_ref_matrix_valid" : 1,
                "s_output" : "exporting...",
                "b_settings" : 0,
                "b_player" : 1,
                "f_player_height" : 0.029999999329447746,
                "b_export" : 1,
                "export_path" : "C:\\Users\\Orbitals\\Desktop\\temp7\\",
                "b_raycast" : 0,
                "b_show_env_sky" : 0,
                "b_cubemap_background" : 0,
                "b_cubemap" : 0,
                "b_camera_cube" : 0,
                "b_bake_lightmap" : 1,
                "b_use_lightmapper" : 0,
                "b_interactive" : 1,
                "b_vr_controllers" : 0,
                "b_export_single_model" : 0
            },
            "name" : "Scene",
            "nodes" : [
                0
            ]
        }
    ],
    "nodes" : [
        {
            "mesh" : 0,
            "name" : "BuildingMesh-00494",
            "rotation" : [
                -0.0011418932117521763,
                -0.009820607490837574,
                0.7071429491043091,
                0.7070015072822571
            ],
            "scale" : [
                4.014991760253906,
                4.015779972076416,
                4.0146684646606445
            ]
        }
    ],
    "materials" : [
        {
            "doubleSided" : true,
            "name" : "BuildingMat-00494",
            "pbrMetallicRoughness" : {
                "baseColorTexture" : {
                    "index" : 0
                },
                "metallicFactor" : 0
            }
        }
    ],
    "meshes" : [
        {
            "name" : "BuildingMesh-00494",
            "primitives" : [
                {
                    "attributes" : {
                        "POSITION" : 0,
                        "NORMAL" : 1,
                        "TANGENT" : 2,
                        "TEXCOORD_0" : 3
                    },
                    "indices" : 4,
                    "material" : 0
                }
            ]
        }
    ],
    "textures" : [
        {
            "sampler" : 0,
            "source" : 0
        }
    ],
    "images" : [
        {
            "bufferView" : 5,
            "mimeType" : "image/png",
            "name" : "TT2-00494-texture"
        }
    ],
    "accessors" : [
        {
            "bufferView" : 0,
            "componentType" : 5126,
            "count" : 460,
            "max" : [
                2.7048661708831787,
                97.17752838134766,
                143.9717254638672
            ],
            "min" : [
                -3.3186628818511963,
                -101.59894561767578,
                -105.00082397460938
            ],
            "type" : "VEC3"
        },
        {
            "bufferView" : 1,
            "componentType" : 5126,
            "count" : 460,
            "type" : "VEC3"
        },
        {
            "bufferView" : 2,
            "componentType" : 5126,
            "count" : 460,
            "type" : "VEC4"
        },
        {
            "bufferView" : 3,
            "componentType" : 5126,
            "count" : 460,
            "type" : "VEC2"
        },
        {
            "bufferView" : 4,
            "componentType" : 5123,
            "count" : 660,
            "type" : "SCALAR"
        }
    ],
    "bufferViews" : [
        {
            "buffer" : 0,
            "byteLength" : 5520,
            "byteOffset" : 0
        },
        {
            "buffer" : 0,
            "byteLength" : 5520,
            "byteOffset" : 5520
        },
        {
            "buffer" : 0,
            "byteLength" : 7360,
            "byteOffset" : 11040
        },
        {
            "buffer" : 0,
            "byteLength" : 3680,
            "byteOffset" : 18400
        },
        {
            "buffer" : 0,
            "byteLength" : 1320,
            "byteOffset" : 22080
        },
        {
            "buffer" : 0,
            "byteLength" : 95091,
            "byteOffset" : 23400
        }
    ],
    "samplers" : [
        {
            "magFilter" : 9729,
            "minFilter" : 9987
        }
    ],
    "buffers" : [
        {
            "byteLength" : 118492,
            "uri" : "data:application/octet-stream;base64,"
        }
    ]
}
