{
    "asset" : {
        "generator" : "Khronos glTF Blender I/O v1.7.17",
        "version" : "2.0"
    },
    "scene" : 0,
    "scenes" : [
        {
            "extras" : {
                "maps_models_importer_ref_matrix" : [
                    13.585243225097656,
                    -2.9424070362438215e-06,
                    63.33811569213867,
                    -63.35923385620117,
                    -6.065597335691564e-05,
                    5.064022541046143,
                    22.760395050048828,
                    -9.485841751098633,
                    8.60896470840089e-05,
                    4.186835765838623,
                    -95.59982299804688,
                    79.57484436035156,
                    0.0,
                    0.0,
                    -0.06636753678321838,
                    0.06638983637094498
                ],
                "maps_models_importer_is_ref_matrix_valid" : 1,
                "b_export" : 1,
                "export_path" : "C:\\Render3\\",
                "s_output" : "exporting...",
                "BakeLabProps" : {},
                "matlib" : {}
            },
            "name" : "Scene",
            "nodes" : [
                0
            ]
        }
    ],
    "nodes" : [
        {
            "mesh" : 0,
            "name" : "BuildingMesh-00121",
            "rotation" : [
                0,
                4.378338417154737e-06,
                0.7071115374565125,
                0.7071020007133484
            ],
            "scale" : [
                0.003906250931322575,
                0.003906243946403265,
                0.0039061775896698236
            ]
        }
    ],
    "materials" : [
        {
            "doubleSided" : true,
            "name" : "BuildingMat-00121",
            "pbrMetallicRoughness" : {
                "baseColorTexture" : {
                    "index" : 0
                },
                "metallicFactor" : 0
            }
        }
    ],
    "meshes" : [
        {
            "name" : "BuildingMesh-00121",
            "primitives" : [
                {
                    "attributes" : {
                        "POSITION" : 0,
                        "NORMAL" : 1,
                        "TANGENT" : 2,
                        "TEXCOORD_0" : 3
                    },
                    "indices" : 4,
                    "material" : 0
                }
            ]
        }
    ],
    "textures" : [
        {
            "sampler" : 0,
            "source" : 0
        }
    ],
    "images" : [
        {
            "bufferView" : 5,
            "mimeType" : "image/png",
            "name" : "12312-00121-texture"
        }
    ],
    "accessors" : [
        {
            "bufferView" : 0,
            "componentType" : 5126,
            "count" : 1995,
            "max" : [
                27.643413543701172,
                120.42628479003906,
                94.8187026977539
            ],
            "min" : [
                -23.556583404541016,
                -83.36979675292969,
                -153.14993286132812
            ],
            "type" : "VEC3"
        },
        {
            "bufferView" : 1,
            "componentType" : 5126,
            "count" : 1995,
            "type" : "VEC3"
        },
        {
            "bufferView" : 2,
            "componentType" : 5126,
            "count" : 1995,
            "type" : "VEC4"
        },
        {
            "bufferView" : 3,
            "componentType" : 5126,
            "count" : 1995,
            "type" : "VEC2"
        },
        {
            "bufferView" : 4,
            "componentType" : 5123,
            "count" : 2547,
            "type" : "SCALAR"
        }
    ],
    "bufferViews" : [
        {
            "buffer" : 0,
            "byteLength" : 23940,
            "byteOffset" : 0
        },
        {
            "buffer" : 0,
            "byteLength" : 23940,
            "byteOffset" : 23940
        },
        {
            "buffer" : 0,
            "byteLength" : 31920,
            "byteOffset" : 47880
        },
        {
            "buffer" : 0,
            "byteLength" : 15960,
            "byteOffset" : 79800
        },
        {
            "buffer" : 0,
            "byteLength" : 5094,
            "byteOffset" : 95760
        },
        {
            "buffer" : 0,
            "byteLength" : 49268,
            "byteOffset" : 100856
        }
    ],
    "samplers" : [
        {
            "magFilter" : 9729,
            "minFilter" : 9987
        }
    ],
    "buffers" : [
        {
            "byteLength" : 150124,
            "uri" : "data:application/octet-stream;base64,"
        }
    ]
}
