{
    "asset" : {
        "generator" : "Khronos glTF Blender I/O v1.7.17",
        "version" : "2.0"
    },
    "scene" : 0,
    "scenes" : [
        {
            "extras" : {
                "maps_models_importer_ref_matrix" : [
                    -12.954334259033203,
                    1.751201671140734e-05,
                    3.889969825744629,
                    -3.8898725509643555,
                    -0.00010873396968236193,
                    -1.7520296573638916,
                    -67.08585357666016,
                    47.002662658691406,
                    6.172453140607104e-06,
                    6.331859588623047,
                    -48.52370071411133,
                    42.96843338012695,
                    3.2674717339225895e-15,
                    0.0,
                    -0.0663781389594078,
                    0.06637928634881973
                ],
                "maps_models_importer_is_ref_matrix_valid" : 1,
                "s_output" : "exporting...",
                "b_settings" : 0,
                "b_player" : 1,
                "f_player_height" : 0.029999999329447746,
                "b_export" : 1,
                "export_path" : "C:\\Users\\Orbitals\\Desktop\\temp7\\",
                "b_raycast" : 0,
                "b_show_env_sky" : 0,
                "b_cubemap_background" : 0,
                "b_cubemap" : 0,
                "b_camera_cube" : 0,
                "b_bake_lightmap" : 1,
                "b_use_lightmapper" : 0,
                "b_interactive" : 1,
                "b_vr_controllers" : 0,
                "b_export_single_model" : 0
            },
            "name" : "Scene",
            "nodes" : [
                0
            ]
        }
    ],
    "nodes" : [
        {
            "mesh" : 0,
            "name" : "BuildingMesh-00485",
            "rotation" : [
                -0.0012752212351188064,
                -0.010575292631983757,
                0.7101134657859802,
                0.7040066719055176
            ],
            "scale" : [
                7.971803665161133,
                7.93318510055542,
                7.972688674926758
            ]
        }
    ],
    "materials" : [
        {
            "doubleSided" : true,
            "name" : "BuildingMat-00485",
            "pbrMetallicRoughness" : {
                "baseColorTexture" : {
                    "index" : 0
                },
                "metallicFactor" : 0
            }
        }
    ],
    "meshes" : [
        {
            "name" : "BuildingMesh-00485",
            "primitives" : [
                {
                    "attributes" : {
                        "POSITION" : 0,
                        "NORMAL" : 1,
                        "TANGENT" : 2,
                        "TEXCOORD_0" : 3
                    },
                    "indices" : 4,
                    "material" : 0
                }
            ]
        }
    ],
    "textures" : [
        {
            "sampler" : 0,
            "source" : 0
        }
    ],
    "images" : [
        {
            "bufferView" : 5,
            "mimeType" : "image/png",
            "name" : "TT2-00485-texture"
        }
    ],
    "accessors" : [
        {
            "bufferView" : 0,
            "componentType" : 5126,
            "count" : 249,
            "max" : [
                2.833289623260498,
                114.19049835205078,
                100.99451446533203
            ],
            "min" : [
                -2.1863179206848145,
                -88.6016616821289,
                -149.98587036132812
            ],
            "type" : "VEC3"
        },
        {
            "bufferView" : 1,
            "componentType" : 5126,
            "count" : 249,
            "type" : "VEC3"
        },
        {
            "bufferView" : 2,
            "componentType" : 5126,
            "count" : 249,
            "type" : "VEC4"
        },
        {
            "bufferView" : 3,
            "componentType" : 5126,
            "count" : 249,
            "type" : "VEC2"
        },
        {
            "bufferView" : 4,
            "componentType" : 5123,
            "count" : 270,
            "type" : "SCALAR"
        }
    ],
    "bufferViews" : [
        {
            "buffer" : 0,
            "byteLength" : 2988,
            "byteOffset" : 0
        },
        {
            "buffer" : 0,
            "byteLength" : 2988,
            "byteOffset" : 2988
        },
        {
            "buffer" : 0,
            "byteLength" : 3984,
            "byteOffset" : 5976
        },
        {
            "buffer" : 0,
            "byteLength" : 1992,
            "byteOffset" : 9960
        },
        {
            "buffer" : 0,
            "byteLength" : 540,
            "byteOffset" : 11952
        },
        {
            "buffer" : 0,
            "byteLength" : 139775,
            "byteOffset" : 12492
        }
    ],
    "samplers" : [
        {
            "magFilter" : 9729,
            "minFilter" : 9987
        }
    ],
    "buffers" : [
        {
            "byteLength" : 152268,
            "uri" : "data:application/octet-stream;base64,"
        }
    ]
}
