{
    "asset" : {
        "generator" : "Khronos glTF Blender I/O v1.7.17",
        "version" : "2.0"
    },
    "scene" : 0,
    "scenes" : [
        {
            "extras" : {
                "maps_models_importer_ref_matrix" : [
                    -12.954334259033203,
                    1.751201671140734e-05,
                    3.889969825744629,
                    -3.8898725509643555,
                    -0.00010873396968236193,
                    -1.7520296573638916,
                    -67.08585357666016,
                    47.002662658691406,
                    6.172453140607104e-06,
                    6.331859588623047,
                    -48.52370071411133,
                    42.96843338012695,
                    3.2674717339225895e-15,
                    0.0,
                    -0.0663781389594078,
                    0.06637928634881973
                ],
                "maps_models_importer_is_ref_matrix_valid" : 1,
                "s_output" : "exporting...",
                "b_settings" : 0,
                "b_player" : 1,
                "f_player_height" : 0.029999999329447746,
                "b_export" : 1,
                "export_path" : "C:\\Users\\Orbitals\\Desktop\\temp7\\",
                "b_raycast" : 0,
                "b_show_env_sky" : 0,
                "b_cubemap_background" : 0,
                "b_cubemap" : 0,
                "b_camera_cube" : 0,
                "b_bake_lightmap" : 1,
                "b_use_lightmapper" : 0,
                "b_interactive" : 1,
                "b_vr_controllers" : 0,
                "b_export_single_model" : 0
            },
            "name" : "Scene",
            "nodes" : [
                0
            ]
        }
    ],
    "nodes" : [
        {
            "mesh" : 0,
            "name" : "BuildingMesh-00129",
            "rotation" : [
                -2.3504337605118053e-06,
                -2.0029543520649895e-05,
                0.7071006894111633,
                0.7071128487586975
            ],
            "scale" : [
                0.01562502421438694,
                0.015625109896063805,
                0.015625473111867905
            ]
        }
    ],
    "materials" : [
        {
            "doubleSided" : true,
            "name" : "BuildingMat-00129",
            "pbrMetallicRoughness" : {
                "baseColorTexture" : {
                    "index" : 0
                },
                "metallicFactor" : 0
            }
        }
    ],
    "meshes" : [
        {
            "name" : "BuildingMesh-00129",
            "primitives" : [
                {
                    "attributes" : {
                        "POSITION" : 0,
                        "NORMAL" : 1,
                        "TANGENT" : 2,
                        "TEXCOORD_0" : 3
                    },
                    "indices" : 4,
                    "material" : 0
                }
            ]
        }
    ],
    "textures" : [
        {
            "sampler" : 0,
            "source" : 0
        }
    ],
    "images" : [
        {
            "bufferView" : 5,
            "mimeType" : "image/png",
            "name" : "TT2-00129-texture"
        }
    ],
    "accessors" : [
        {
            "bufferView" : 0,
            "componentType" : 5126,
            "count" : 1762,
            "max" : [
                14.080084800720215,
                77.18407440185547,
                100.23649597167969
            ],
            "min" : [
                -5.998346328735352,
                -124.60416412353516,
                -38.30469512939453
            ],
            "type" : "VEC3"
        },
        {
            "bufferView" : 1,
            "componentType" : 5126,
            "count" : 1762,
            "type" : "VEC3"
        },
        {
            "bufferView" : 2,
            "componentType" : 5126,
            "count" : 1762,
            "type" : "VEC4"
        },
        {
            "bufferView" : 3,
            "componentType" : 5126,
            "count" : 1762,
            "type" : "VEC2"
        },
        {
            "bufferView" : 4,
            "componentType" : 5123,
            "count" : 2313,
            "type" : "SCALAR"
        }
    ],
    "bufferViews" : [
        {
            "buffer" : 0,
            "byteLength" : 21144,
            "byteOffset" : 0
        },
        {
            "buffer" : 0,
            "byteLength" : 21144,
            "byteOffset" : 21144
        },
        {
            "buffer" : 0,
            "byteLength" : 28192,
            "byteOffset" : 42288
        },
        {
            "buffer" : 0,
            "byteLength" : 14096,
            "byteOffset" : 70480
        },
        {
            "buffer" : 0,
            "byteLength" : 4626,
            "byteOffset" : 84576
        },
        {
            "buffer" : 0,
            "byteLength" : 19816,
            "byteOffset" : 89204
        }
    ],
    "samplers" : [
        {
            "magFilter" : 9729,
            "minFilter" : 9987
        }
    ],
    "buffers" : [
        {
            "byteLength" : 109020,
            "uri" : "data:application/octet-stream;base64,"
        }
    ]
}
