{
    "asset" : {
        "generator" : "Khronos glTF Blender I/O v1.7.17",
        "version" : "2.0"
    },
    "scene" : 0,
    "scenes" : [
        {
            "extras" : {
                "maps_models_importer_ref_matrix" : [
                    -12.954334259033203,
                    1.751201671140734e-05,
                    3.889969825744629,
                    -3.8898725509643555,
                    -0.00010873396968236193,
                    -1.7520296573638916,
                    -67.08585357666016,
                    47.002662658691406,
                    6.172453140607104e-06,
                    6.331859588623047,
                    -48.52370071411133,
                    42.96843338012695,
                    3.2674717339225895e-15,
                    0.0,
                    -0.0663781389594078,
                    0.06637928634881973
                ],
                "maps_models_importer_is_ref_matrix_valid" : 1,
                "s_output" : "exporting...",
                "b_settings" : 0,
                "b_player" : 1,
                "f_player_height" : 0.029999999329447746,
                "b_export" : 1,
                "export_path" : "C:\\Users\\Orbitals\\Desktop\\temp7\\",
                "b_raycast" : 0,
                "b_show_env_sky" : 0,
                "b_cubemap_background" : 0,
                "b_cubemap" : 0,
                "b_camera_cube" : 0,
                "b_bake_lightmap" : 1,
                "b_use_lightmapper" : 0,
                "b_interactive" : 1,
                "b_vr_controllers" : 0,
                "b_export_single_model" : 0
            },
            "name" : "Scene",
            "nodes" : [
                0
            ]
        }
    ],
    "nodes" : [
        {
            "mesh" : 0,
            "name" : "BuildingMesh-00077",
            "rotation" : [
                0,
                -9.691750165075064e-06,
                0.7071096897125244,
                0.7071038484573364
            ],
            "scale" : [
                0.007812504656612873,
                0.007812504656612873,
                0.007812427822500467
            ]
        }
    ],
    "materials" : [
        {
            "doubleSided" : true,
            "name" : "BuildingMat-00077",
            "pbrMetallicRoughness" : {
                "baseColorTexture" : {
                    "index" : 0
                },
                "metallicFactor" : 0
            }
        }
    ],
    "meshes" : [
        {
            "name" : "BuildingMesh-00077",
            "primitives" : [
                {
                    "attributes" : {
                        "POSITION" : 0,
                        "NORMAL" : 1,
                        "TANGENT" : 2,
                        "TEXCOORD_0" : 3
                    },
                    "indices" : 4,
                    "material" : 0
                }
            ]
        }
    ],
    "textures" : [
        {
            "sampler" : 0,
            "source" : 0
        }
    ],
    "images" : [
        {
            "bufferView" : 5,
            "mimeType" : "image/png",
            "name" : "TT2-00077-texture"
        }
    ],
    "accessors" : [
        {
            "bufferView" : 0,
            "componentType" : 5126,
            "count" : 6665,
            "max" : [
                120.66119384765625,
                116.6513671875,
                76.7973403930664
            ],
            "min" : [
                -59.040775299072266,
                -87.14471435546875,
                -174.18304443359375
            ],
            "type" : "VEC3"
        },
        {
            "bufferView" : 1,
            "componentType" : 5126,
            "count" : 6665,
            "type" : "VEC3"
        },
        {
            "bufferView" : 2,
            "componentType" : 5126,
            "count" : 6665,
            "type" : "VEC4"
        },
        {
            "bufferView" : 3,
            "componentType" : 5126,
            "count" : 6665,
            "type" : "VEC2"
        },
        {
            "bufferView" : 4,
            "componentType" : 5123,
            "count" : 8004,
            "type" : "SCALAR"
        }
    ],
    "bufferViews" : [
        {
            "buffer" : 0,
            "byteLength" : 79980,
            "byteOffset" : 0
        },
        {
            "buffer" : 0,
            "byteLength" : 79980,
            "byteOffset" : 79980
        },
        {
            "buffer" : 0,
            "byteLength" : 106640,
            "byteOffset" : 159960
        },
        {
            "buffer" : 0,
            "byteLength" : 53320,
            "byteOffset" : 266600
        },
        {
            "buffer" : 0,
            "byteLength" : 16008,
            "byteOffset" : 319920
        },
        {
            "buffer" : 0,
            "byteLength" : 178361,
            "byteOffset" : 335928
        }
    ],
    "samplers" : [
        {
            "magFilter" : 9729,
            "minFilter" : 9987
        }
    ],
    "buffers" : [
        {
            "byteLength" : 514292,
            "uri" : "data:application/octet-stream;base64,"
        }
    ]
}
