{
    "asset" : {
        "generator" : "Khronos glTF Blender I/O v1.7.17",
        "version" : "2.0"
    },
    "scene" : 0,
    "scenes" : [
        {
            "extras" : {
                "maps_models_importer_ref_matrix" : [
                    -12.954334259033203,
                    1.751201671140734e-05,
                    3.889969825744629,
                    -3.8898725509643555,
                    -0.00010873396968236193,
                    -1.7520296573638916,
                    -67.08585357666016,
                    47.002662658691406,
                    6.172453140607104e-06,
                    6.331859588623047,
                    -48.52370071411133,
                    42.96843338012695,
                    3.2674717339225895e-15,
                    0.0,
                    -0.0663781389594078,
                    0.06637928634881973
                ],
                "maps_models_importer_is_ref_matrix_valid" : 1,
                "s_output" : "exporting...",
                "b_settings" : 0,
                "b_player" : 1,
                "f_player_height" : 0.029999999329447746,
                "b_export" : 1,
                "export_path" : "C:\\Users\\Orbitals\\Desktop\\temp7\\",
                "b_raycast" : 0,
                "b_show_env_sky" : 0,
                "b_cubemap_background" : 0,
                "b_cubemap" : 0,
                "b_camera_cube" : 0,
                "b_bake_lightmap" : 1,
                "b_use_lightmapper" : 0,
                "b_interactive" : 1,
                "b_vr_controllers" : 0,
                "b_export_single_model" : 0
            },
            "name" : "Scene",
            "nodes" : [
                0
            ]
        }
    ],
    "nodes" : [
        {
            "mesh" : 0,
            "name" : "BuildingMesh-00053",
            "rotation" : [
                0,
                -2.9759739845758304e-06,
                0.7071036100387573,
                0.7071099281311035
            ],
            "scale" : [
                0.003906250465661287,
                0.003906245343387127,
                0.003906288184225559
            ]
        }
    ],
    "materials" : [
        {
            "doubleSided" : true,
            "name" : "BuildingMat-00053",
            "pbrMetallicRoughness" : {
                "baseColorTexture" : {
                    "index" : 0
                },
                "metallicFactor" : 0
            }
        }
    ],
    "meshes" : [
        {
            "name" : "BuildingMesh-00053",
            "primitives" : [
                {
                    "attributes" : {
                        "POSITION" : 0,
                        "NORMAL" : 1,
                        "TANGENT" : 2,
                        "TEXCOORD_0" : 3
                    },
                    "indices" : 4,
                    "material" : 0
                }
            ]
        }
    ],
    "textures" : [
        {
            "sampler" : 0,
            "source" : 0
        }
    ],
    "images" : [
        {
            "bufferView" : 5,
            "mimeType" : "image/png",
            "name" : "TT2-00053-texture"
        }
    ],
    "accessors" : [
        {
            "bufferView" : 0,
            "componentType" : 5126,
            "count" : 3636,
            "max" : [
                84.82528686523438,
                111.5433578491211,
                130.7748260498047
            ],
            "min" : [
                -66.7668685913086,
                -89.24095916748047,
                -120.20557403564453
            ],
            "type" : "VEC3"
        },
        {
            "bufferView" : 1,
            "componentType" : 5126,
            "count" : 3636,
            "type" : "VEC3"
        },
        {
            "bufferView" : 2,
            "componentType" : 5126,
            "count" : 3636,
            "type" : "VEC4"
        },
        {
            "bufferView" : 3,
            "componentType" : 5126,
            "count" : 3636,
            "type" : "VEC2"
        },
        {
            "bufferView" : 4,
            "componentType" : 5123,
            "count" : 4701,
            "type" : "SCALAR"
        }
    ],
    "bufferViews" : [
        {
            "buffer" : 0,
            "byteLength" : 43632,
            "byteOffset" : 0
        },
        {
            "buffer" : 0,
            "byteLength" : 43632,
            "byteOffset" : 43632
        },
        {
            "buffer" : 0,
            "byteLength" : 58176,
            "byteOffset" : 87264
        },
        {
            "buffer" : 0,
            "byteLength" : 29088,
            "byteOffset" : 145440
        },
        {
            "buffer" : 0,
            "byteLength" : 9402,
            "byteOffset" : 174528
        },
        {
            "buffer" : 0,
            "byteLength" : 183482,
            "byteOffset" : 183932
        }
    ],
    "samplers" : [
        {
            "magFilter" : 9729,
            "minFilter" : 9987
        }
    ],
    "buffers" : [
        {
            "byteLength" : 367416,
            "uri" : "data:application/octet-stream;base64,"
        }
    ]
}
