{
    "asset" : {
        "generator" : "Khronos glTF Blender I/O v1.7.17",
        "version" : "2.0"
    },
    "scene" : 0,
    "scenes" : [
        {
            "extras" : {
                "maps_models_importer_ref_matrix" : [
                    13.585243225097656,
                    -2.9424070362438215e-06,
                    63.33811569213867,
                    -63.35923385620117,
                    -6.065597335691564e-05,
                    5.064022541046143,
                    22.760395050048828,
                    -9.485841751098633,
                    8.60896470840089e-05,
                    4.186835765838623,
                    -95.59982299804688,
                    79.57484436035156,
                    0.0,
                    0.0,
                    -0.06636753678321838,
                    0.06638983637094498
                ],
                "maps_models_importer_is_ref_matrix_valid" : 1,
                "b_export" : 1,
                "export_path" : "C:\\Render3\\",
                "s_output" : "exporting...",
                "BakeLabProps" : {},
                "matlib" : {}
            },
            "name" : "Scene",
            "nodes" : [
                0
            ]
        }
    ],
    "nodes" : [
        {
            "mesh" : 0,
            "name" : "BuildingMesh-00142",
            "rotation" : [
                0,
                5.881979177502217e-06,
                0.7071062922477722,
                0.7071072459220886
            ],
            "scale" : [
                0.00390625,
                0.0039062497671693563,
                0.003906256519258022
            ]
        }
    ],
    "materials" : [
        {
            "doubleSided" : true,
            "name" : "BuildingMat-00142",
            "pbrMetallicRoughness" : {
                "baseColorTexture" : {
                    "index" : 0
                },
                "metallicFactor" : 0
            }
        }
    ],
    "meshes" : [
        {
            "name" : "BuildingMesh-00142",
            "primitives" : [
                {
                    "attributes" : {
                        "POSITION" : 0,
                        "NORMAL" : 1,
                        "TANGENT" : 2,
                        "TEXCOORD_0" : 3
                    },
                    "indices" : 4,
                    "material" : 0
                }
            ]
        }
    ],
    "textures" : [
        {
            "sampler" : 0,
            "source" : 0
        }
    ],
    "images" : [
        {
            "bufferView" : 5,
            "mimeType" : "image/png",
            "name" : "12312-00142-texture"
        }
    ],
    "accessors" : [
        {
            "bufferView" : 0,
            "componentType" : 5126,
            "count" : 1062,
            "max" : [
                80.65696716308594,
                126.010009765625,
                85.8987808227539
            ],
            "min" : [
                -110.088134765625,
                -73.7703857421875,
                -112.87769317626953
            ],
            "type" : "VEC3"
        },
        {
            "bufferView" : 1,
            "componentType" : 5126,
            "count" : 1062,
            "type" : "VEC3"
        },
        {
            "bufferView" : 2,
            "componentType" : 5126,
            "count" : 1062,
            "type" : "VEC4"
        },
        {
            "bufferView" : 3,
            "componentType" : 5126,
            "count" : 1062,
            "type" : "VEC2"
        },
        {
            "bufferView" : 4,
            "componentType" : 5123,
            "count" : 1356,
            "type" : "SCALAR"
        }
    ],
    "bufferViews" : [
        {
            "buffer" : 0,
            "byteLength" : 12744,
            "byteOffset" : 0
        },
        {
            "buffer" : 0,
            "byteLength" : 12744,
            "byteOffset" : 12744
        },
        {
            "buffer" : 0,
            "byteLength" : 16992,
            "byteOffset" : 25488
        },
        {
            "buffer" : 0,
            "byteLength" : 8496,
            "byteOffset" : 42480
        },
        {
            "buffer" : 0,
            "byteLength" : 2712,
            "byteOffset" : 50976
        },
        {
            "buffer" : 0,
            "byteLength" : 26139,
            "byteOffset" : 53688
        }
    ],
    "samplers" : [
        {
            "magFilter" : 9729,
            "minFilter" : 9987
        }
    ],
    "buffers" : [
        {
            "byteLength" : 79828,
            "uri" : "data:application/octet-stream;base64,"
        }
    ]
}
