{
    "asset" : {
        "generator" : "Khronos glTF Blender I/O v1.7.17",
        "version" : "2.0"
    },
    "scene" : 0,
    "scenes" : [
        {
            "extras" : {
                "maps_models_importer_ref_matrix" : [
                    13.585243225097656,
                    -2.9424070362438215e-06,
                    63.33811569213867,
                    -63.35923385620117,
                    -6.065597335691564e-05,
                    5.064022541046143,
                    22.760395050048828,
                    -9.485841751098633,
                    8.60896470840089e-05,
                    4.186835765838623,
                    -95.59982299804688,
                    79.57484436035156,
                    0.0,
                    0.0,
                    -0.06636753678321838,
                    0.06638983637094498
                ],
                "maps_models_importer_is_ref_matrix_valid" : 1,
                "b_export" : 1,
                "export_path" : "C:\\Render3\\",
                "s_output" : "exporting...",
                "BakeLabProps" : {},
                "matlib" : {}
            },
            "name" : "Scene",
            "nodes" : [
                0
            ]
        }
    ],
    "nodes" : [
        {
            "mesh" : 0,
            "name" : "obj_0.006",
            "rotation" : [
                0.12802940607070923,
                -0.6954196095466614,
                0.6954196691513062,
                0.12802939116954803
            ]
        }
    ],
    "materials" : [
        {
            "doubleSided" : true,
            "name" : "color_16089887.002",
            "pbrMetallicRoughness" : {
                "baseColorFactor" : [
                    0.9607840180397034,
                    0.513725996017456,
                    0.12156900018453598,
                    1
                ],
                "metallicFactor" : 0
            }
        }
    ],
    "meshes" : [
        {
            "name" : "obj_0.002",
            "primitives" : [
                {
                    "attributes" : {
                        "POSITION" : 0,
                        "NORMAL" : 1,
                        "TANGENT" : 2,
                        "TEXCOORD_0" : 3
                    },
                    "indices" : 4,
                    "material" : 0
                }
            ]
        }
    ],
    "accessors" : [
        {
            "bufferView" : 0,
            "componentType" : 5126,
            "count" : 1997,
            "max" : [
                0.028866225853562355,
                0.036017801612615585,
                0.03200715407729149
            ],
            "min" : [
                -0.026033824309706688,
                -0.018856380134820938,
                -0.02106383442878723
            ],
            "type" : "VEC3"
        },
        {
            "bufferView" : 1,
            "componentType" : 5126,
            "count" : 1997,
            "type" : "VEC3"
        },
        {
            "bufferView" : 2,
            "componentType" : 5126,
            "count" : 1997,
            "type" : "VEC4"
        },
        {
            "bufferView" : 3,
            "componentType" : 5126,
            "count" : 1997,
            "type" : "VEC2"
        },
        {
            "bufferView" : 4,
            "componentType" : 5123,
            "count" : 12018,
            "type" : "SCALAR"
        }
    ],
    "bufferViews" : [
        {
            "buffer" : 0,
            "byteLength" : 23964,
            "byteOffset" : 0
        },
        {
            "buffer" : 0,
            "byteLength" : 23964,
            "byteOffset" : 23964
        },
        {
            "buffer" : 0,
            "byteLength" : 31952,
            "byteOffset" : 47928
        },
        {
            "buffer" : 0,
            "byteLength" : 15976,
            "byteOffset" : 79880
        },
        {
            "buffer" : 0,
            "byteLength" : 24036,
            "byteOffset" : 95856
        }
    ],
    "buffers" : [
        {
            "byteLength" : 119892,
            "uri" : "data:application/octet-stream;base64,"
        }
    ]
}
