{
    "asset" : {
        "generator" : "Khronos glTF Blender I/O v1.6.16",
        "version" : "2.0"
    },
    "scene" : 0,
    "scenes" : [
        {
            "extras" : {
                "b_export" : 1,
                "export_path" : "C:\\big3\\",
                "b_interactive" : 1,
                "b_player" : 1,
                "b_renderer" : 1,
                "b_settings" : 1,
                "b_show_env_sky" : 1,
                "s_output" : "exporting..."
            },
            "name" : "Scene",
            "nodes" : [
                2
            ]
        }
    ],
    "nodes" : [
        {
            "mesh" : 0,
            "name" : "Platonic_9"
        },
        {
            "children" : [
                0
            ],
            "name" : "Random_8",
            "rotation" : [
                -0.4669666886329651,
                -0.5141249895095825,
                0.5449274182319641,
                0.4697571098804474
            ],
            "scale" : [
                -0.9660398364067078,
                -2.4582700729370117,
                -0.5942819118499756
            ],
            "translation" : [
                31642.07421875,
                22077.376953125,
                0
            ]
        },
        {
            "children" : [
                1
            ],
            "name" : "Cloner",
            "rotation" : [
                0.7071068286895752,
                0,
                0,
                0.7071067094802856
            ],
            "scale" : [
                0.009999999776482582,
                0.009999999776482582,
                0.009999999776482582
            ],
            "translation" : [
                0,
                -4.767538547515869,
                0
            ]
        }
    ],
    "animations" : [
        {
            "channels" : [
                {
                    "sampler" : 0,
                    "target" : {
                        "node" : 1,
                        "path" : "translation"
                    }
                },
                {
                    "sampler" : 1,
                    "target" : {
                        "node" : 1,
                        "path" : "rotation"
                    }
                },
                {
                    "sampler" : 2,
                    "target" : {
                        "node" : 1,
                        "path" : "scale"
                    }
                }
            ],
            "name" : "Random_8|C4D Animation Take|Layer0",
            "samplers" : [
                {
                    "input" : 5,
                    "interpolation" : "LINEAR",
                    "output" : 6
                },
                {
                    "input" : 5,
                    "interpolation" : "LINEAR",
                    "output" : 7
                },
                {
                    "input" : 5,
                    "interpolation" : "LINEAR",
                    "output" : 8
                }
            ]
        }
    ],
    "materials" : [
        {
            "doubleSided" : true,
            "name" : "Mat.1",
            "pbrMetallicRoughness" : {
                "baseColorFactor" : [
                    0.1592680811882019,
                    0.0044401176273822784,
                    0.0007233251817524433,
                    1
                ],
                "metallicFactor" : 0,
                "roughnessFactor" : 0.5527864098548889
            }
        }
    ],
    "meshes" : [
        {
            "name" : "Mesh.008",
            "primitives" : [
                {
                    "attributes" : {
                        "POSITION" : 0,
                        "NORMAL" : 1,
                        "TANGENT" : 2,
                        "TEXCOORD_0" : 3
                    },
                    "indices" : 4,
                    "material" : 0
                }
            ]
        }
    ],
    "accessors" : [
        {
            "bufferView" : 0,
            "componentType" : 5126,
            "count" : 60,
            "max" : [
                809.0169677734375,
                809.0169677734375,
                809.0169677734375
            ],
            "min" : [
                -809.0169677734375,
                -809.0169677734375,
                -809.0169677734375
            ],
            "type" : "VEC3"
        },
        {
            "bufferView" : 1,
            "componentType" : 5126,
            "count" : 60,
            "type" : "VEC3"
        },
        {
            "bufferView" : 2,
            "componentType" : 5126,
            "count" : 60,
            "type" : "VEC4"
        },
        {
            "bufferView" : 3,
            "componentType" : 5126,
            "count" : 60,
            "type" : "VEC2"
        },
        {
            "bufferView" : 4,
            "componentType" : 5123,
            "count" : 60,
            "type" : "SCALAR"
        },
        {
            "bufferView" : 5,
            "componentType" : 5126,
            "count" : 91,
            "max" : [
                3.033333333333333
            ],
            "min" : [
                0.03333333333333333
            ],
            "type" : "SCALAR"
        },
        {
            "bufferView" : 6,
            "componentType" : 5126,
            "count" : 91,
            "type" : "VEC3"
        },
        {
            "bufferView" : 7,
            "componentType" : 5126,
            "count" : 91,
            "type" : "VEC4"
        },
        {
            "bufferView" : 8,
            "componentType" : 5126,
            "count" : 91,
            "type" : "VEC3"
        }
    ],
    "bufferViews" : [
        {
            "buffer" : 0,
            "byteLength" : 720,
            "byteOffset" : 0
        },
        {
            "buffer" : 0,
            "byteLength" : 720,
            "byteOffset" : 720
        },
        {
            "buffer" : 0,
            "byteLength" : 960,
            "byteOffset" : 1440
        },
        {
            "buffer" : 0,
            "byteLength" : 480,
            "byteOffset" : 2400
        },
        {
            "buffer" : 0,
            "byteLength" : 120,
            "byteOffset" : 2880
        },
        {
            "buffer" : 0,
            "byteLength" : 364,
            "byteOffset" : 3000
        },
        {
            "buffer" : 0,
            "byteLength" : 1092,
            "byteOffset" : 3364
        },
        {
            "buffer" : 0,
            "byteLength" : 1456,
            "byteOffset" : 4456
        },
        {
            "buffer" : 0,
            "byteLength" : 1092,
            "byteOffset" : 5912
        }
    ],
    "buffers" : [
        {
            "byteLength" : 7004,
            "uri" : "data:application/octet-stream;base64,"
        }
    ]
}
