{
    "asset" : {
        "generator" : "Khronos glTF Blender I/O v1.7.17",
        "version" : "2.0"
    },
    "scene" : 0,
    "scenes" : [
        {
            "extras" : {
                "s_output" : "exporting...",
                "b_export" : 1,
                "matlib" : {},
                "b_settings" : 1,
                "b_player" : 1,
                "f_player_speed" : 4.659999847412109,
                "f_player_height" : 3.859999895095825,
                "b_renderer" : 1,
                "b_colorManagement" : 1,
                "b_aa" : 1,
                "b_physicallyCorrectLights" : 1,
                "b_bake_lightmap" : 1,
                "b_use_lightmapper" : 1,
                "export_path" : "C:\\Users\\Orbitals\\Desktop\\Final\\",
                "BakeLabProps" : {},
                "b_camera_cube" : 1,
                "b_cubemap" : 1,
                "b_interactive" : 1,
                "b_show_env_sky" : 1
            },
            "name" : "Scene",
            "nodes" : [
                0
            ]
        }
    ],
    "nodes" : [
        {
            "mesh" : 0,
            "name" : "obj_0",
            "rotation" : [
                0,
                -0.00021474238019436598,
                0,
                1
            ]
        }
    ],
    "materials" : [
        {
            "doubleSided" : true,
            "name" : "color_2829873",
            "pbrMetallicRoughness" : {
                "baseColorFactor" : [
                    0.16862745583057404,
                    0.18039216101169586,
                    0.1921568661928177,
                    1
                ],
                "metallicFactor" : 0
            }
        },
        {
            "doubleSided" : true,
            "name" : "color_10988977",
            "pbrMetallicRoughness" : {
                "baseColorFactor" : [
                    0.6549019813537598,
                    0.6784313917160034,
                    0.6941176652908325,
                    1
                ],
                "metallicFactor" : 0
            }
        },
        {
            "doubleSided" : true,
            "name" : "color_12568524",
            "pbrMetallicRoughness" : {
                "baseColorFactor" : [
                    0.7490196228027344,
                    0.7803921699523926,
                    0.800000011920929,
                    1
                ],
                "metallicFactor" : 0
            }
        },
        {
            "doubleSided" : true,
            "name" : "color_14541540",
            "pbrMetallicRoughness" : {
                "baseColorFactor" : [
                    0.8666666746139526,
                    0.886274516582489,
                    0.8941176533699036,
                    1
                ],
                "metallicFactor" : 0
            }
        }
    ],
    "meshes" : [
        {
            "name" : "obj_0",
            "primitives" : [
                {
                    "attributes" : {
                        "POSITION" : 0,
                        "NORMAL" : 1
                    },
                    "indices" : 2,
                    "material" : 0
                },
                {
                    "attributes" : {
                        "POSITION" : 3,
                        "NORMAL" : 4
                    },
                    "indices" : 5,
                    "material" : 1
                },
                {
                    "attributes" : {
                        "POSITION" : 6,
                        "NORMAL" : 7
                    },
                    "indices" : 8,
                    "material" : 2
                },
                {
                    "attributes" : {
                        "POSITION" : 9,
                        "NORMAL" : 10
                    },
                    "indices" : 11,
                    "material" : 3
                }
            ]
        }
    ],
    "accessors" : [
        {
            "bufferView" : 0,
            "componentType" : 5126,
            "count" : 3971,
            "max" : [
                323.0257263183594,
                265.32861328125,
                365.54937744140625
            ],
            "min" : [
                -375.1362609863281,
                -3.5533828735351562,
                -346.3786315917969
            ],
            "type" : "VEC3"
        },
        {
            "bufferView" : 1,
            "componentType" : 5126,
            "count" : 3971,
            "type" : "VEC3"
        },
        {
            "bufferView" : 2,
            "componentType" : 5123,
            "count" : 14280,
            "type" : "SCALAR"
        },
        {
            "bufferView" : 3,
            "componentType" : 5126,
            "count" : 3902,
            "max" : [
                271.8637390136719,
                59.446617126464844,
                257.9963684082031
            ],
            "min" : [
                -262.61724853515625,
                -3.5533828735351562,
                -266.0036315917969
            ],
            "type" : "VEC3"
        },
        {
            "bufferView" : 4,
            "componentType" : 5126,
            "count" : 3902,
            "type" : "VEC3"
        },
        {
            "bufferView" : 5,
            "componentType" : 5123,
            "count" : 13527,
            "type" : "SCALAR"
        },
        {
            "bufferView" : 6,
            "componentType" : 5126,
            "count" : 2234,
            "max" : [
                294.8637390136719,
                61.446617126464844,
                294.9963684082031
            ],
            "min" : [
                -374.1362609863281,
                -3.5533828735351562,
                -262.2686462402344
            ],
            "type" : "VEC3"
        },
        {
            "bufferView" : 7,
            "componentType" : 5126,
            "count" : 2234,
            "type" : "VEC3"
        },
        {
            "bufferView" : 8,
            "componentType" : 5123,
            "count" : 7773,
            "type" : "SCALAR"
        },
        {
            "bufferView" : 9,
            "componentType" : 5126,
            "count" : 4894,
            "max" : [
                502.8637390136719,
                -1.9383845329284668,
                516.996337890625
            ],
            "min" : [
                -495.1362609863281,
                -10.55338191986084,
                -481.0036315917969
            ],
            "type" : "VEC3"
        },
        {
            "bufferView" : 10,
            "componentType" : 5126,
            "count" : 4894,
            "type" : "VEC3"
        },
        {
            "bufferView" : 11,
            "componentType" : 5123,
            "count" : 17073,
            "type" : "SCALAR"
        }
    ],
    "bufferViews" : [
        {
            "buffer" : 0,
            "byteLength" : 47652,
            "byteOffset" : 0
        },
        {
            "buffer" : 0,
            "byteLength" : 47652,
            "byteOffset" : 47652
        },
        {
            "buffer" : 0,
            "byteLength" : 28560,
            "byteOffset" : 95304
        },
        {
            "buffer" : 0,
            "byteLength" : 46824,
            "byteOffset" : 123864
        },
        {
            "buffer" : 0,
            "byteLength" : 46824,
            "byteOffset" : 170688
        },
        {
            "buffer" : 0,
            "byteLength" : 27054,
            "byteOffset" : 217512
        },
        {
            "buffer" : 0,
            "byteLength" : 26808,
            "byteOffset" : 244568
        },
        {
            "buffer" : 0,
            "byteLength" : 26808,
            "byteOffset" : 271376
        },
        {
            "buffer" : 0,
            "byteLength" : 15546,
            "byteOffset" : 298184
        },
        {
            "buffer" : 0,
            "byteLength" : 58728,
            "byteOffset" : 313732
        },
        {
            "buffer" : 0,
            "byteLength" : 58728,
            "byteOffset" : 372460
        },
        {
            "buffer" : 0,
            "byteLength" : 34146,
            "byteOffset" : 431188
        }
    ],
    "buffers" : [
        {
            "byteLength" : 465336,
            "uri" : "data:application/octet-stream;base64,"
        }
    ]
}
