{
    "asset" : {
        "generator" : "Khronos glTF Blender I/O v1.7.17",
        "version" : "2.0"
    },
    "scene" : 0,
    "scenes" : [
        {
            "extras" : {
                "maps_models_importer_ref_matrix" : [
                    13.585243225097656,
                    -2.9424070362438215e-06,
                    63.33811569213867,
                    -63.35923385620117,
                    -6.065597335691564e-05,
                    5.064022541046143,
                    22.760395050048828,
                    -9.485841751098633,
                    8.60896470840089e-05,
                    4.186835765838623,
                    -95.59982299804688,
                    79.57484436035156,
                    0.0,
                    0.0,
                    -0.06636753678321838,
                    0.06638983637094498
                ],
                "maps_models_importer_is_ref_matrix_valid" : 1,
                "b_export" : 1,
                "export_path" : "C:\\Render3\\",
                "s_output" : "exporting...",
                "BakeLabProps" : {},
                "matlib" : {}
            },
            "name" : "Scene",
            "nodes" : [
                0
            ]
        }
    ],
    "nodes" : [
        {
            "mesh" : 0,
            "name" : "BuildingMesh-00078",
            "rotation" : [
                0,
                2.8851980005129008e-06,
                0.7071099281311035,
                0.7071036696434021
            ],
            "scale" : [
                0.003906250931322575,
                0.0039062497671693563,
                0.003906205063685775
            ]
        }
    ],
    "materials" : [
        {
            "doubleSided" : true,
            "name" : "BuildingMat-00078",
            "pbrMetallicRoughness" : {
                "baseColorTexture" : {
                    "index" : 0
                },
                "metallicFactor" : 0
            }
        }
    ],
    "meshes" : [
        {
            "name" : "BuildingMesh-00078",
            "primitives" : [
                {
                    "attributes" : {
                        "POSITION" : 0,
                        "NORMAL" : 1,
                        "TANGENT" : 2,
                        "TEXCOORD_0" : 3
                    },
                    "indices" : 4,
                    "material" : 0
                }
            ]
        }
    ],
    "textures" : [
        {
            "sampler" : 0,
            "source" : 0
        }
    ],
    "images" : [
        {
            "bufferView" : 5,
            "mimeType" : "image/png",
            "name" : "12312-00078-texture"
        }
    ],
    "accessors" : [
        {
            "bufferView" : 0,
            "componentType" : 5126,
            "count" : 2540,
            "max" : [
                116.1784439086914,
                106.24385833740234,
                78.71118927001953
            ],
            "min" : [
                -77.57842254638672,
                -97.5522232055664,
                -62.84175109863281
            ],
            "type" : "VEC3"
        },
        {
            "bufferView" : 1,
            "componentType" : 5126,
            "count" : 2540,
            "type" : "VEC3"
        },
        {
            "bufferView" : 2,
            "componentType" : 5126,
            "count" : 2540,
            "type" : "VEC4"
        },
        {
            "bufferView" : 3,
            "componentType" : 5126,
            "count" : 2540,
            "type" : "VEC2"
        },
        {
            "bufferView" : 4,
            "componentType" : 5123,
            "count" : 3255,
            "type" : "SCALAR"
        }
    ],
    "bufferViews" : [
        {
            "buffer" : 0,
            "byteLength" : 30480,
            "byteOffset" : 0
        },
        {
            "buffer" : 0,
            "byteLength" : 30480,
            "byteOffset" : 30480
        },
        {
            "buffer" : 0,
            "byteLength" : 40640,
            "byteOffset" : 60960
        },
        {
            "buffer" : 0,
            "byteLength" : 20320,
            "byteOffset" : 101600
        },
        {
            "buffer" : 0,
            "byteLength" : 6510,
            "byteOffset" : 121920
        },
        {
            "buffer" : 0,
            "byteLength" : 81892,
            "byteOffset" : 128432
        }
    ],
    "samplers" : [
        {
            "magFilter" : 9729,
            "minFilter" : 9987
        }
    ],
    "buffers" : [
        {
            "byteLength" : 210324,
            "uri" : "data:application/octet-stream;base64,"
        }
    ]
}
