{
    "asset" : {
        "generator" : "Khronos glTF Blender I/O v1.7.17",
        "version" : "2.0"
    },
    "scene" : 0,
    "scenes" : [
        {
            "extras" : {
                "maps_models_importer_ref_matrix" : [
                    13.585243225097656,
                    -2.9424070362438215e-06,
                    63.33811569213867,
                    -63.35923385620117,
                    -6.065597335691564e-05,
                    5.064022541046143,
                    22.760395050048828,
                    -9.485841751098633,
                    8.60896470840089e-05,
                    4.186835765838623,
                    -95.59982299804688,
                    79.57484436035156,
                    0.0,
                    0.0,
                    -0.06636753678321838,
                    0.06638983637094498
                ],
                "maps_models_importer_is_ref_matrix_valid" : 1,
                "b_export" : 1,
                "export_path" : "C:\\Render3\\",
                "s_output" : "exporting...",
                "BakeLabProps" : {},
                "matlib" : {}
            },
            "name" : "Scene",
            "nodes" : [
                0
            ]
        }
    ],
    "nodes" : [
        {
            "mesh" : 0,
            "name" : "BuildingMesh-00085",
            "rotation" : [
                0,
                2.8628849122469546e-06,
                0.7071056962013245,
                0.7071078419685364
            ],
            "scale" : [
                0.003906251396983862,
                0.0039062497671693563,
                0.003906263969838619
            ]
        }
    ],
    "materials" : [
        {
            "doubleSided" : true,
            "name" : "BuildingMat-00085",
            "pbrMetallicRoughness" : {
                "baseColorTexture" : {
                    "index" : 0
                },
                "metallicFactor" : 0
            }
        }
    ],
    "meshes" : [
        {
            "name" : "BuildingMesh-00085",
            "primitives" : [
                {
                    "attributes" : {
                        "POSITION" : 0,
                        "NORMAL" : 1,
                        "TANGENT" : 2,
                        "TEXCOORD_0" : 3
                    },
                    "indices" : 4,
                    "material" : 0
                }
            ]
        }
    ],
    "textures" : [
        {
            "sampler" : 0,
            "source" : 0
        }
    ],
    "images" : [
        {
            "bufferView" : 5,
            "mimeType" : "image/png",
            "name" : "12312-00085-texture"
        }
    ],
    "accessors" : [
        {
            "bufferView" : 0,
            "componentType" : 5126,
            "count" : 2922,
            "max" : [
                31.107776641845703,
                71.01787567138672,
                162.40078735351562
            ],
            "min" : [
                -20.092226028442383,
                -127.75859832763672,
                -86.57176208496094
            ],
            "type" : "VEC3"
        },
        {
            "bufferView" : 1,
            "componentType" : 5126,
            "count" : 2922,
            "type" : "VEC3"
        },
        {
            "bufferView" : 2,
            "componentType" : 5126,
            "count" : 2922,
            "type" : "VEC4"
        },
        {
            "bufferView" : 3,
            "componentType" : 5126,
            "count" : 2922,
            "type" : "VEC2"
        },
        {
            "bufferView" : 4,
            "componentType" : 5123,
            "count" : 3645,
            "type" : "SCALAR"
        }
    ],
    "bufferViews" : [
        {
            "buffer" : 0,
            "byteLength" : 35064,
            "byteOffset" : 0
        },
        {
            "buffer" : 0,
            "byteLength" : 35064,
            "byteOffset" : 35064
        },
        {
            "buffer" : 0,
            "byteLength" : 46752,
            "byteOffset" : 70128
        },
        {
            "buffer" : 0,
            "byteLength" : 23376,
            "byteOffset" : 116880
        },
        {
            "buffer" : 0,
            "byteLength" : 7290,
            "byteOffset" : 140256
        },
        {
            "buffer" : 0,
            "byteLength" : 112162,
            "byteOffset" : 147548
        }
    ],
    "samplers" : [
        {
            "magFilter" : 9729,
            "minFilter" : 9987
        }
    ],
    "buffers" : [
        {
            "byteLength" : 259712,
            "uri" : "data:application/octet-stream;base64,"
        }
    ]
}
