{
    "asset" : {
        "generator" : "Khronos glTF Blender I/O v1.7.17",
        "version" : "2.0"
    },
    "scene" : 0,
    "scenes" : [
        {
            "extras" : {
                "maps_models_importer_ref_matrix" : [
                    13.585243225097656,
                    -2.9424070362438215e-06,
                    63.33811569213867,
                    -63.35923385620117,
                    -6.065597335691564e-05,
                    5.064022541046143,
                    22.760395050048828,
                    -9.485841751098633,
                    8.60896470840089e-05,
                    4.186835765838623,
                    -95.59982299804688,
                    79.57484436035156,
                    0.0,
                    0.0,
                    -0.06636753678321838,
                    0.06638983637094498
                ],
                "maps_models_importer_is_ref_matrix_valid" : 1,
                "b_export" : 1,
                "export_path" : "C:\\Render3\\",
                "s_output" : "exporting...",
                "BakeLabProps" : {},
                "matlib" : {}
            },
            "name" : "Scene",
            "nodes" : [
                0
            ]
        }
    ],
    "nodes" : [
        {
            "mesh" : 0,
            "name" : "BuildingMesh-00059",
            "rotation" : [
                0,
                0,
                0.7071093916893005,
                0.7071041464805603
            ],
            "scale" : [
                0.003906249301508069,
                0.0039062441792339087,
                0.003906206926330924
            ]
        }
    ],
    "materials" : [
        {
            "doubleSided" : true,
            "name" : "BuildingMat-00059",
            "pbrMetallicRoughness" : {
                "baseColorTexture" : {
                    "index" : 0
                },
                "metallicFactor" : 0
            }
        }
    ],
    "meshes" : [
        {
            "name" : "BuildingMesh-00059",
            "primitives" : [
                {
                    "attributes" : {
                        "POSITION" : 0,
                        "NORMAL" : 1,
                        "TANGENT" : 2,
                        "TEXCOORD_0" : 3
                    },
                    "indices" : 4,
                    "material" : 0
                }
            ]
        }
    ],
    "textures" : [
        {
            "sampler" : 0,
            "source" : 0
        }
    ],
    "images" : [
        {
            "bufferView" : 5,
            "mimeType" : "image/png",
            "name" : "12312-00059-texture"
        }
    ],
    "accessors" : [
        {
            "bufferView" : 0,
            "componentType" : 5126,
            "count" : 1493,
            "max" : [
                8.753493309020996,
                93.79862976074219,
                122.18218231201172
            ],
            "min" : [
                -11.324936866760254,
                -107.98960876464844,
                -128.79820251464844
            ],
            "type" : "VEC3"
        },
        {
            "bufferView" : 1,
            "componentType" : 5126,
            "count" : 1493,
            "type" : "VEC3"
        },
        {
            "bufferView" : 2,
            "componentType" : 5126,
            "count" : 1493,
            "type" : "VEC4"
        },
        {
            "bufferView" : 3,
            "componentType" : 5126,
            "count" : 1493,
            "type" : "VEC2"
        },
        {
            "bufferView" : 4,
            "componentType" : 5123,
            "count" : 1887,
            "type" : "SCALAR"
        }
    ],
    "bufferViews" : [
        {
            "buffer" : 0,
            "byteLength" : 17916,
            "byteOffset" : 0
        },
        {
            "buffer" : 0,
            "byteLength" : 17916,
            "byteOffset" : 17916
        },
        {
            "buffer" : 0,
            "byteLength" : 23888,
            "byteOffset" : 35832
        },
        {
            "buffer" : 0,
            "byteLength" : 11944,
            "byteOffset" : 59720
        },
        {
            "buffer" : 0,
            "byteLength" : 3774,
            "byteOffset" : 71664
        },
        {
            "buffer" : 0,
            "byteLength" : 73884,
            "byteOffset" : 75440
        }
    ],
    "samplers" : [
        {
            "magFilter" : 9729,
            "minFilter" : 9987
        }
    ],
    "buffers" : [
        {
            "byteLength" : 149324,
            "uri" : "data:application/octet-stream;base64,"
        }
    ]
}
