{
    "asset" : {
        "generator" : "Khronos glTF Blender I/O v1.6.16",
        "version" : "2.0"
    },
    "scene" : 0,
    "scenes" : [
        {
            "extras" : {
                "s_output" : "exporting...",
                "b_export" : 1,
                "export_path" : "C:\\City3\\",
                "b_export_single_model" : 1,
                "b_settings" : 1,
                "b_player" : 1,
                "f_player_height" : 7.220000267028809
            },
            "name" : "Scene",
            "nodes" : [
                0,
                1,
                2,
                3,
                4,
                5
            ]
        }
    ],
    "nodes" : [
        {
            "name" : "Camera",
            "rotation" : [
                -0.64958655834198,
                -0.295687198638916,
                0.3178160488605499,
                -0.624178946018219
            ],
            "translation" : [
                220.57460021972656,
                19.160903930664062,
                168.06680297851562
            ]
        },
        {
            "name" : "Camera.001",
            "rotation" : [
                0.6071223020553589,
                0.30294865369796753,
                -0.28017401695251465,
                0.6790634393692017
            ]
        },
        {
            "mesh" : 0,
            "name" : "obj_0",
            "scale" : [
                0.15115851163864136,
                0.15115851163864136,
                0.15115851163864136
            ],
            "translation" : [
                -3.840167760848999,
                3.5531437397003174,
                -17.989986419677734
            ]
        },
        {
            "mesh" : 1,
            "name" : "Cylinder",
            "rotation" : [
                -0.5608199238777161,
                0,
                0,
                0.8279378414154053
            ],
            "scale" : [
                0.10000000149011612,
                100,
                -0.10000000149011612
            ],
            "translation" : [
                19.079998016357422,
                0,
                -10.170000076293945
            ]
        },
        {
            "name" : "Point.001",
            "rotation" : [
                -0.055536676198244095,
                0.1816522777080536,
                -0.2870486080646515,
                0.938893735408783
            ],
            "translation" : [
                0,
                52,
                0
            ]
        },
        {
            "mesh" : 2,
            "name" : "Cylinder.001",
            "rotation" : [
                0.4596523344516754,
                0,
                0,
                0.888098955154419
            ],
            "scale" : [
                0.10000000149011612,
                100,
                -0.10000000149011612
            ],
            "translation" : [
                5.8381195068359375,
                0,
                -10.170000076293945
            ]
        }
    ],
    "animations" : [
        {
            "channels" : [
                {
                    "sampler" : 0,
                    "target" : {
                        "node" : 3,
                        "path" : "rotation"
                    }
                }
            ],
            "name" : "CylinderAction.002",
            "samplers" : [
                {
                    "input" : 19,
                    "interpolation" : "LINEAR",
                    "output" : 20
                }
            ]
        },
        {
            "channels" : [
                {
                    "sampler" : 0,
                    "target" : {
                        "node" : 5,
                        "path" : "rotation"
                    }
                }
            ],
            "name" : "Cylinder.001Action.001",
            "samplers" : [
                {
                    "input" : 19,
                    "interpolation" : "LINEAR",
                    "output" : 21
                }
            ]
        }
    ],
    "materials" : [
        {
            "doubleSided" : true,
            "name" : "color_2829873",
            "pbrMetallicRoughness" : {
                "baseColorFactor" : [
                    0.16862745583057404,
                    0.18039216101169586,
                    0.1921568661928177,
                    1
                ],
                "metallicFactor" : 0
            }
        },
        {
            "doubleSided" : true,
            "name" : "color_10988977",
            "pbrMetallicRoughness" : {
                "baseColorFactor" : [
                    0.6549019813537598,
                    0.6784313917160034,
                    0.6941176652908325,
                    1
                ],
                "metallicFactor" : 0
            }
        },
        {
            "doubleSided" : true,
            "name" : "color_12568524",
            "pbrMetallicRoughness" : {
                "baseColorFactor" : [
                    0.7490196228027344,
                    0.7803921699523926,
                    0.800000011920929,
                    1
                ],
                "metallicFactor" : 0
            }
        },
        {
            "doubleSided" : true,
            "name" : "color_14541540",
            "pbrMetallicRoughness" : {
                "baseColorFactor" : [
                    0.8666666746139526,
                    0.886274516582489,
                    0.8941176533699036,
                    1
                ],
                "metallicFactor" : 0
            }
        },
        {
            "doubleSided" : true,
            "emissiveFactor" : [
                0.002257825806736946,
                1,
                0
            ],
            "name" : "Material.002",
            "pbrMetallicRoughness" : {
                "baseColorFactor" : [
                    0,
                    0.8000000715255737,
                    0.004340696148574352,
                    1
                ],
                "metallicFactor" : 0,
                "roughnessFactor" : 0.5
            }
        },
        {
            "doubleSided" : true,
            "emissiveFactor" : [
                0.002257825806736946,
                1,
                0
            ],
            "name" : "Material.003",
            "pbrMetallicRoughness" : {
                "baseColorFactor" : [
                    0,
                    0.8000000715255737,
                    0.004340696148574352,
                    1
                ],
                "metallicFactor" : 0,
                "roughnessFactor" : 0.5
            }
        }
    ],
    "meshes" : [
        {
            "name" : "obj_0",
            "primitives" : [
                {
                    "attributes" : {
                        "POSITION" : 0,
                        "NORMAL" : 1
                    },
                    "indices" : 2,
                    "material" : 0
                },
                {
                    "attributes" : {
                        "POSITION" : 3,
                        "NORMAL" : 4
                    },
                    "indices" : 5,
                    "material" : 1
                },
                {
                    "attributes" : {
                        "POSITION" : 6,
                        "NORMAL" : 7
                    },
                    "indices" : 8,
                    "material" : 2
                },
                {
                    "attributes" : {
                        "POSITION" : 9,
                        "NORMAL" : 10
                    },
                    "indices" : 11,
                    "material" : 3
                }
            ]
        },
        {
            "name" : "Cylinder.001",
            "primitives" : [
                {
                    "attributes" : {
                        "POSITION" : 12,
                        "NORMAL" : 13,
                        "TEXCOORD_0" : 14
                    },
                    "indices" : 15,
                    "material" : 4
                }
            ]
        },
        {
            "name" : "Cylinder.002",
            "primitives" : [
                {
                    "attributes" : {
                        "POSITION" : 16,
                        "NORMAL" : 17,
                        "TEXCOORD_0" : 18
                    },
                    "indices" : 15,
                    "material" : 5
                }
            ]
        }
    ],
    "accessors" : [
        {
            "bufferView" : 0,
            "componentType" : 5126,
            "count" : 3972,
            "max" : [
                323.0021667480469,
                265.328857421875,
                365.5429992675781
            ],
            "min" : [
                -375.1598205566406,
                -3.5531437397003174,
                -346.385009765625
            ],
            "type" : "VEC3"
        },
        {
            "bufferView" : 1,
            "componentType" : 5126,
            "count" : 3972,
            "type" : "VEC3"
        },
        {
            "bufferView" : 2,
            "componentType" : 5123,
            "count" : 14283,
            "type" : "SCALAR"
        },
        {
            "bufferView" : 3,
            "componentType" : 5126,
            "count" : 3902,
            "max" : [
                271.8401794433594,
                59.44685745239258,
                257.989990234375
            ],
            "min" : [
                -262.64080810546875,
                -3.5531437397003174,
                -266.010009765625
            ],
            "type" : "VEC3"
        },
        {
            "bufferView" : 4,
            "componentType" : 5126,
            "count" : 3902,
            "type" : "VEC3"
        },
        {
            "bufferView" : 5,
            "componentType" : 5123,
            "count" : 13527,
            "type" : "SCALAR"
        },
        {
            "bufferView" : 6,
            "componentType" : 5126,
            "count" : 2235,
            "max" : [
                294.8401794433594,
                61.44685745239258,
                294.989990234375
            ],
            "min" : [
                -374.1598205566406,
                -3.5531437397003174,
                -262.2750244140625
            ],
            "type" : "VEC3"
        },
        {
            "bufferView" : 7,
            "componentType" : 5126,
            "count" : 2235,
            "type" : "VEC3"
        },
        {
            "bufferView" : 8,
            "componentType" : 5123,
            "count" : 7776,
            "type" : "SCALAR"
        },
        {
            "bufferView" : 9,
            "componentType" : 5126,
            "count" : 4892,
            "max" : [
                502.8401794433594,
                -1.9381437301635742,
                516.989990234375
            ],
            "min" : [
                -495.1598205566406,
                -10.553143501281738,
                -481.010009765625
            ],
            "type" : "VEC3"
        },
        {
            "bufferView" : 10,
            "componentType" : 5126,
            "count" : 4892,
            "type" : "VEC3"
        },
        {
            "bufferView" : 11,
            "componentType" : 5123,
            "count" : 17070,
            "type" : "SCALAR"
        },
        {
            "bufferView" : 12,
            "componentType" : 5126,
            "count" : 192,
            "max" : [
                0.9999999403953552,
                2.0323030948638916,
                1
            ],
            "min" : [
                -1.0000001192092896,
                0.0323030948638916,
                -1
            ],
            "type" : "VEC3"
        },
        {
            "bufferView" : 13,
            "componentType" : 5126,
            "count" : 192,
            "type" : "VEC3"
        },
        {
            "bufferView" : 14,
            "componentType" : 5126,
            "count" : 192,
            "type" : "VEC2"
        },
        {
            "bufferView" : 15,
            "componentType" : 5123,
            "count" : 372,
            "type" : "SCALAR"
        },
        {
            "bufferView" : 16,
            "componentType" : 5126,
            "count" : 192,
            "max" : [
                0.9999999403953552,
                2.0323030948638916,
                1
            ],
            "min" : [
                -1.0000001192092896,
                0.0323030948638916,
                -1
            ],
            "type" : "VEC3"
        },
        {
            "bufferView" : 17,
            "componentType" : 5126,
            "count" : 192,
            "type" : "VEC3"
        },
        {
            "bufferView" : 18,
            "componentType" : 5126,
            "count" : 192,
            "type" : "VEC2"
        },
        {
            "bufferView" : 19,
            "componentType" : 5126,
            "count" : 240,
            "max" : [
                9.958333333333334
            ],
            "min" : [
                0
            ],
            "type" : "SCALAR"
        },
        {
            "bufferView" : 20,
            "componentType" : 5126,
            "count" : 240,
            "type" : "VEC4"
        },
        {
            "bufferView" : 21,
            "componentType" : 5126,
            "count" : 240,
            "type" : "VEC4"
        }
    ],
    "bufferViews" : [
        {
            "buffer" : 0,
            "byteLength" : 47664,
            "byteOffset" : 0
        },
        {
            "buffer" : 0,
            "byteLength" : 47664,
            "byteOffset" : 47664
        },
        {
            "buffer" : 0,
            "byteLength" : 28566,
            "byteOffset" : 95328
        },
        {
            "buffer" : 0,
            "byteLength" : 46824,
            "byteOffset" : 123896
        },
        {
            "buffer" : 0,
            "byteLength" : 46824,
            "byteOffset" : 170720
        },
        {
            "buffer" : 0,
            "byteLength" : 27054,
            "byteOffset" : 217544
        },
        {
            "buffer" : 0,
            "byteLength" : 26820,
            "byteOffset" : 244600
        },
        {
            "buffer" : 0,
            "byteLength" : 26820,
            "byteOffset" : 271420
        },
        {
            "buffer" : 0,
            "byteLength" : 15552,
            "byteOffset" : 298240
        },
        {
            "buffer" : 0,
            "byteLength" : 58704,
            "byteOffset" : 313792
        },
        {
            "buffer" : 0,
            "byteLength" : 58704,
            "byteOffset" : 372496
        },
        {
            "buffer" : 0,
            "byteLength" : 34140,
            "byteOffset" : 431200
        },
        {
            "buffer" : 0,
            "byteLength" : 2304,
            "byteOffset" : 465340
        },
        {
            "buffer" : 0,
            "byteLength" : 2304,
            "byteOffset" : 467644
        },
        {
            "buffer" : 0,
            "byteLength" : 1536,
            "byteOffset" : 469948
        },
        {
            "buffer" : 0,
            "byteLength" : 744,
            "byteOffset" : 471484
        },
        {
            "buffer" : 0,
            "byteLength" : 2304,
            "byteOffset" : 472228
        },
        {
            "buffer" : 0,
            "byteLength" : 2304,
            "byteOffset" : 474532
        },
        {
            "buffer" : 0,
            "byteLength" : 1536,
            "byteOffset" : 476836
        },
        {
            "buffer" : 0,
            "byteLength" : 960,
            "byteOffset" : 478372
        },
        {
            "buffer" : 0,
            "byteLength" : 3840,
            "byteOffset" : 479332
        },
        {
            "buffer" : 0,
            "byteLength" : 3840,
            "byteOffset" : 483172
        }
    ],
    "buffers" : [
        {
            "byteLength" : 487012,
            "uri" : "data:application/octet-stream;base64,"
        }
    ]
}
